<mxfile host="app.diagrams.net" agent="Mozilla/5.0 (Windows NT 10.0; Win64; x64) AppleWebKit/537.36 (KHTML, like Gecko) Chrome/127.0.0.0 Safari/537.36 OPR/113.0.0.0" version="24.7.17">
  <diagram name="Page-1" id="LRgm4zWo3WdfejJ3Icpy">
    <mxGraphModel dx="1990" dy="1090" grid="1" gridSize="10" guides="1" tooltips="1" connect="1" arrows="1" fold="1" page="1" pageScale="1" pageWidth="850" pageHeight="1100" math="0" shadow="0">
      <root>
        <mxCell id="0" />
        <mxCell id="1" parent="0" />
        <mxCell id="e_MqWQ6MAurPrHNY56Mh-1" value="Order" style="swimlane;whiteSpace=wrap;html=1;startSize=40;" parent="1" vertex="1">
          <mxGeometry x="40" y="400" width="210" height="340" as="geometry" />
        </mxCell>
        <mxCell id="e_MqWQ6MAurPrHNY56Mh-2" value="" style="endArrow=none;html=1;rounded=0;exitX=0;exitY=0.5;exitDx=0;exitDy=0;" parent="e_MqWQ6MAurPrHNY56Mh-1" edge="1">
          <mxGeometry width="50" height="50" relative="1" as="geometry">
            <mxPoint y="170" as="sourcePoint" />
            <mxPoint x="210" y="170" as="targetPoint" />
            <Array as="points" />
          </mxGeometry>
        </mxCell>
        <mxCell id="ioHlp-8zEgEREZRqOhcT-2" value="_products: Product" style="text;align=center;fontStyle=1;verticalAlign=middle;spacingLeft=3;spacingRight=3;strokeColor=none;rotatable=0;points=[[0,0.5],[1,0.5]];portConstraint=eastwest;html=1;" parent="e_MqWQ6MAurPrHNY56Mh-1" vertex="1">
          <mxGeometry x="33" y="50" width="80" height="26" as="geometry" />
        </mxCell>
        <mxCell id="ioHlp-8zEgEREZRqOhcT-3" value="_customers: Customer" style="text;align=center;fontStyle=1;verticalAlign=middle;spacingLeft=3;spacingRight=3;strokeColor=none;rotatable=0;points=[[0,0.5],[1,0.5]];portConstraint=eastwest;html=1;" parent="e_MqWQ6MAurPrHNY56Mh-1" vertex="1">
          <mxGeometry x="33" y="70" width="80" height="26" as="geometry" />
        </mxCell>
        <mxCell id="ioHlp-8zEgEREZRqOhcT-14" value="Order(product, customer)" style="text;align=center;fontStyle=1;verticalAlign=middle;spacingLeft=3;spacingRight=3;strokeColor=none;rotatable=0;points=[[0,0.5],[1,0.5]];portConstraint=eastwest;html=1;" parent="e_MqWQ6MAurPrHNY56Mh-1" vertex="1">
          <mxGeometry x="50" y="180" width="80" height="26" as="geometry" />
        </mxCell>
        <mxCell id="ioHlp-8zEgEREZRqOhcT-16" value="TotalCost(): int" style="text;align=center;fontStyle=1;verticalAlign=middle;spacingLeft=3;spacingRight=3;strokeColor=none;rotatable=0;points=[[0,0.5],[1,0.5]];portConstraint=eastwest;html=1;" parent="e_MqWQ6MAurPrHNY56Mh-1" vertex="1">
          <mxGeometry x="30" y="214" width="80" height="26" as="geometry" />
        </mxCell>
        <mxCell id="ioHlp-8zEgEREZRqOhcT-17" style="edgeStyle=orthogonalEdgeStyle;rounded=0;orthogonalLoop=1;jettySize=auto;html=1;exitX=1;exitY=0.5;exitDx=0;exitDy=0;" parent="e_MqWQ6MAurPrHNY56Mh-1" edge="1">
          <mxGeometry relative="1" as="geometry">
            <mxPoint x="140" y="129" as="sourcePoint" />
            <mxPoint x="140" y="129" as="targetPoint" />
          </mxGeometry>
        </mxCell>
        <mxCell id="ioHlp-8zEgEREZRqOhcT-18" value="GetPackingLabel()" style="text;align=center;fontStyle=1;verticalAlign=middle;spacingLeft=3;spacingRight=3;strokeColor=none;rotatable=0;points=[[0,0.5],[1,0.5]];portConstraint=eastwest;html=1;" parent="e_MqWQ6MAurPrHNY56Mh-1" vertex="1">
          <mxGeometry x="33" y="234" width="80" height="26" as="geometry" />
        </mxCell>
        <mxCell id="ioHlp-8zEgEREZRqOhcT-20" style="edgeStyle=orthogonalEdgeStyle;rounded=0;orthogonalLoop=1;jettySize=auto;html=1;exitX=1;exitY=0.5;exitDx=0;exitDy=0;entryX=0.975;entryY=0.769;entryDx=0;entryDy=0;entryPerimeter=0;" parent="e_MqWQ6MAurPrHNY56Mh-1" source="ioHlp-8zEgEREZRqOhcT-18" target="ioHlp-8zEgEREZRqOhcT-18" edge="1">
          <mxGeometry relative="1" as="geometry" />
        </mxCell>
        <mxCell id="ioHlp-8zEgEREZRqOhcT-70" value="GetShippingLabel()" style="text;align=center;fontStyle=1;verticalAlign=middle;spacingLeft=3;spacingRight=3;strokeColor=none;rotatable=0;points=[[0,0.5],[1,0.5]];portConstraint=eastwest;html=1;" parent="e_MqWQ6MAurPrHNY56Mh-1" vertex="1">
          <mxGeometry x="33" y="254" width="80" height="26" as="geometry" />
        </mxCell>
        <mxCell id="ioHlp-8zEgEREZRqOhcT-5" value="User" style="swimlane;whiteSpace=wrap;html=1;startSize=40;" parent="1" vertex="1">
          <mxGeometry x="300" y="20" width="210" height="250" as="geometry" />
        </mxCell>
        <mxCell id="ioHlp-8zEgEREZRqOhcT-6" value="" style="endArrow=none;html=1;rounded=0;exitX=0;exitY=0.5;exitDx=0;exitDy=0;" parent="ioHlp-8zEgEREZRqOhcT-5" edge="1">
          <mxGeometry width="50" height="50" relative="1" as="geometry">
            <mxPoint y="120" as="sourcePoint" />
            <mxPoint x="210" y="120" as="targetPoint" />
            <Array as="points" />
          </mxGeometry>
        </mxCell>
        <mxCell id="ioHlp-8zEgEREZRqOhcT-7" value="_id" style="text;align=center;fontStyle=1;verticalAlign=middle;spacingLeft=3;spacingRight=3;strokeColor=none;rotatable=0;points=[[0,0.5],[1,0.5]];portConstraint=eastwest;html=1;" parent="ioHlp-8zEgEREZRqOhcT-5" vertex="1">
          <mxGeometry y="50" width="80" height="26" as="geometry" />
        </mxCell>
        <mxCell id="ioHlp-8zEgEREZRqOhcT-22" value="User(name)" style="text;align=center;fontStyle=1;verticalAlign=middle;spacingLeft=3;spacingRight=3;strokeColor=none;rotatable=0;points=[[0,0.5],[1,0.5]];portConstraint=eastwest;html=1;" parent="ioHlp-8zEgEREZRqOhcT-5" vertex="1">
          <mxGeometry x="20" y="124" width="80" height="26" as="geometry" />
        </mxCell>
        <mxCell id="ioHlp-8zEgEREZRqOhcT-24" value="GetUserName()" style="text;align=center;fontStyle=1;verticalAlign=middle;spacingLeft=3;spacingRight=3;strokeColor=none;rotatable=0;points=[[0,0.5],[1,0.5]];portConstraint=eastwest;html=1;" parent="ioHlp-8zEgEREZRqOhcT-5" vertex="1">
          <mxGeometry x="45" y="160" width="80" height="26" as="geometry" />
        </mxCell>
        <mxCell id="ioHlp-8zEgEREZRqOhcT-25" value="_name" style="text;align=center;fontStyle=1;verticalAlign=middle;spacingLeft=3;spacingRight=3;strokeColor=none;rotatable=0;points=[[0,0.5],[1,0.5]];portConstraint=eastwest;html=1;" parent="ioHlp-8zEgEREZRqOhcT-5" vertex="1">
          <mxGeometry y="70" width="80" height="26" as="geometry" />
        </mxCell>
        <mxCell id="ioHlp-8zEgEREZRqOhcT-11" value="Comment" style="swimlane;whiteSpace=wrap;html=1;startSize=40;" parent="1" vertex="1">
          <mxGeometry x="550" y="20" width="210" height="210" as="geometry" />
        </mxCell>
        <mxCell id="ioHlp-8zEgEREZRqOhcT-12" value="" style="endArrow=none;html=1;rounded=0;exitX=0;exitY=0.5;exitDx=0;exitDy=0;" parent="ioHlp-8zEgEREZRqOhcT-11" edge="1">
          <mxGeometry width="50" height="50" relative="1" as="geometry">
            <mxPoint y="120" as="sourcePoint" />
            <mxPoint x="210" y="120" as="targetPoint" />
            <Array as="points" />
          </mxGeometry>
        </mxCell>
        <mxCell id="ioHlp-8zEgEREZRqOhcT-13" value="_comment: string" style="text;align=center;fontStyle=1;verticalAlign=middle;spacingLeft=3;spacingRight=3;strokeColor=none;rotatable=0;points=[[0,0.5],[1,0.5]];portConstraint=eastwest;html=1;" parent="ioHlp-8zEgEREZRqOhcT-11" vertex="1">
          <mxGeometry x="30" y="50" width="80" height="26" as="geometry" />
        </mxCell>
        <mxCell id="ioHlp-8zEgEREZRqOhcT-21" value="_userName: string" style="text;align=center;fontStyle=1;verticalAlign=middle;spacingLeft=3;spacingRight=3;strokeColor=none;rotatable=0;points=[[0,0.5],[1,0.5]];portConstraint=eastwest;html=1;" parent="ioHlp-8zEgEREZRqOhcT-11" vertex="1">
          <mxGeometry x="30" y="70" width="80" height="26" as="geometry" />
        </mxCell>
        <mxCell id="ioHlp-8zEgEREZRqOhcT-23" value="Comment(comment, username)" style="text;align=center;fontStyle=1;verticalAlign=middle;spacingLeft=3;spacingRight=3;strokeColor=none;rotatable=0;points=[[0,0.5],[1,0.5]];portConstraint=eastwest;html=1;" parent="ioHlp-8zEgEREZRqOhcT-11" vertex="1">
          <mxGeometry x="65" y="130" width="80" height="26" as="geometry" />
        </mxCell>
        <mxCell id="ioHlp-8zEgEREZRqOhcT-26" value="" style="endArrow=none;html=1;rounded=0;" parent="1" edge="1">
          <mxGeometry width="50" height="50" relative="1" as="geometry">
            <mxPoint y="360" as="sourcePoint" />
            <mxPoint x="850" y="360" as="targetPoint" />
          </mxGeometry>
        </mxCell>
        <mxCell id="ioHlp-8zEgEREZRqOhcT-27" value="Video" style="swimlane;whiteSpace=wrap;html=1;startSize=40;" parent="1" vertex="1">
          <mxGeometry x="40" y="20" width="210" height="290" as="geometry" />
        </mxCell>
        <mxCell id="ioHlp-8zEgEREZRqOhcT-28" value="" style="endArrow=none;html=1;rounded=0;exitX=0;exitY=0.5;exitDx=0;exitDy=0;" parent="ioHlp-8zEgEREZRqOhcT-27" edge="1">
          <mxGeometry width="50" height="50" relative="1" as="geometry">
            <mxPoint y="170" as="sourcePoint" />
            <mxPoint x="210" y="170" as="targetPoint" />
            <Array as="points" />
          </mxGeometry>
        </mxCell>
        <mxCell id="ioHlp-8zEgEREZRqOhcT-29" value="_title" style="text;align=center;fontStyle=1;verticalAlign=middle;spacingLeft=3;spacingRight=3;strokeColor=none;rotatable=0;points=[[0,0.5],[1,0.5]];portConstraint=eastwest;html=1;" parent="ioHlp-8zEgEREZRqOhcT-27" vertex="1">
          <mxGeometry y="50" width="80" height="26" as="geometry" />
        </mxCell>
        <mxCell id="ioHlp-8zEgEREZRqOhcT-30" value="_author" style="text;align=center;fontStyle=1;verticalAlign=middle;spacingLeft=3;spacingRight=3;strokeColor=none;rotatable=0;points=[[0,0.5],[1,0.5]];portConstraint=eastwest;html=1;" parent="ioHlp-8zEgEREZRqOhcT-27" vertex="1">
          <mxGeometry y="70" width="80" height="26" as="geometry" />
        </mxCell>
        <mxCell id="ioHlp-8zEgEREZRqOhcT-31" value="_length (in seconds)" style="text;align=center;fontStyle=1;verticalAlign=middle;spacingLeft=3;spacingRight=3;strokeColor=none;rotatable=0;points=[[0,0.5],[1,0.5]];portConstraint=eastwest;html=1;" parent="ioHlp-8zEgEREZRqOhcT-27" vertex="1">
          <mxGeometry x="33" y="90" width="80" height="26" as="geometry" />
        </mxCell>
        <mxCell id="ioHlp-8zEgEREZRqOhcT-32" value="_comments: List&amp;lt;Comment&amp;gt;" style="text;align=center;fontStyle=1;verticalAlign=middle;spacingLeft=3;spacingRight=3;strokeColor=none;rotatable=0;points=[[0,0.5],[1,0.5]];portConstraint=eastwest;html=1;" parent="ioHlp-8zEgEREZRqOhcT-27" vertex="1">
          <mxGeometry x="60" y="116" width="80" height="26" as="geometry" />
        </mxCell>
        <mxCell id="ioHlp-8zEgEREZRqOhcT-33" value="Video(title, author, length)" style="text;align=center;fontStyle=1;verticalAlign=middle;spacingLeft=3;spacingRight=3;strokeColor=none;rotatable=0;points=[[0,0.5],[1,0.5]];portConstraint=eastwest;html=1;" parent="ioHlp-8zEgEREZRqOhcT-27" vertex="1">
          <mxGeometry x="50" y="180" width="80" height="26" as="geometry" />
        </mxCell>
        <mxCell id="ioHlp-8zEgEREZRqOhcT-34" value="StoreComment(comment)" style="text;align=center;fontStyle=1;verticalAlign=middle;spacingLeft=3;spacingRight=3;strokeColor=none;rotatable=0;points=[[0,0.5],[1,0.5]];portConstraint=eastwest;html=1;" parent="ioHlp-8zEgEREZRqOhcT-27" vertex="1">
          <mxGeometry x="50" y="220" width="80" height="26" as="geometry" />
        </mxCell>
        <mxCell id="ioHlp-8zEgEREZRqOhcT-35" style="edgeStyle=orthogonalEdgeStyle;rounded=0;orthogonalLoop=1;jettySize=auto;html=1;exitX=1;exitY=0.5;exitDx=0;exitDy=0;" parent="ioHlp-8zEgEREZRqOhcT-27" source="ioHlp-8zEgEREZRqOhcT-32" target="ioHlp-8zEgEREZRqOhcT-32" edge="1">
          <mxGeometry relative="1" as="geometry" />
        </mxCell>
        <mxCell id="ioHlp-8zEgEREZRqOhcT-36" value="QuantityOfComments()" style="text;align=center;fontStyle=1;verticalAlign=middle;spacingLeft=3;spacingRight=3;strokeColor=none;rotatable=0;points=[[0,0.5],[1,0.5]];portConstraint=eastwest;html=1;" parent="ioHlp-8zEgEREZRqOhcT-27" vertex="1">
          <mxGeometry x="40" y="240" width="80" height="26" as="geometry" />
        </mxCell>
        <mxCell id="ioHlp-8zEgEREZRqOhcT-37" style="edgeStyle=orthogonalEdgeStyle;rounded=0;orthogonalLoop=1;jettySize=auto;html=1;exitX=1;exitY=0.5;exitDx=0;exitDy=0;entryX=0.975;entryY=0.769;entryDx=0;entryDy=0;entryPerimeter=0;" parent="ioHlp-8zEgEREZRqOhcT-27" source="ioHlp-8zEgEREZRqOhcT-36" target="ioHlp-8zEgEREZRqOhcT-36" edge="1">
          <mxGeometry relative="1" as="geometry" />
        </mxCell>
        <mxCell id="ioHlp-8zEgEREZRqOhcT-38" value="Customer" style="swimlane;whiteSpace=wrap;html=1;startSize=40;" parent="1" vertex="1">
          <mxGeometry x="550" y="400" width="210" height="290" as="geometry" />
        </mxCell>
        <mxCell id="ioHlp-8zEgEREZRqOhcT-39" value="" style="endArrow=none;html=1;rounded=0;exitX=0;exitY=0.5;exitDx=0;exitDy=0;" parent="ioHlp-8zEgEREZRqOhcT-38" edge="1">
          <mxGeometry width="50" height="50" relative="1" as="geometry">
            <mxPoint y="170" as="sourcePoint" />
            <mxPoint x="210" y="170" as="targetPoint" />
            <Array as="points" />
          </mxGeometry>
        </mxCell>
        <mxCell id="ioHlp-8zEgEREZRqOhcT-40" value="_name: string" style="text;align=center;fontStyle=1;verticalAlign=middle;spacingLeft=3;spacingRight=3;strokeColor=none;rotatable=0;points=[[0,0.5],[1,0.5]];portConstraint=eastwest;html=1;" parent="ioHlp-8zEgEREZRqOhcT-38" vertex="1">
          <mxGeometry y="50" width="80" height="26" as="geometry" />
        </mxCell>
        <mxCell id="ioHlp-8zEgEREZRqOhcT-41" value="_address: Adress" style="text;align=center;fontStyle=1;verticalAlign=middle;spacingLeft=3;spacingRight=3;strokeColor=none;rotatable=0;points=[[0,0.5],[1,0.5]];portConstraint=eastwest;html=1;" parent="ioHlp-8zEgEREZRqOhcT-38" vertex="1">
          <mxGeometry x="10" y="70" width="80" height="26" as="geometry" />
        </mxCell>
        <mxCell id="ioHlp-8zEgEREZRqOhcT-42" value="_quantity: int" style="text;align=center;fontStyle=1;verticalAlign=middle;spacingLeft=3;spacingRight=3;strokeColor=none;rotatable=0;points=[[0,0.5],[1,0.5]];portConstraint=eastwest;html=1;" parent="ioHlp-8zEgEREZRqOhcT-38" vertex="1">
          <mxGeometry x="10" y="90" width="80" height="26" as="geometry" />
        </mxCell>
        <mxCell id="ioHlp-8zEgEREZRqOhcT-44" value="Customer(title, author, length)" style="text;align=center;fontStyle=1;verticalAlign=middle;spacingLeft=3;spacingRight=3;strokeColor=none;rotatable=0;points=[[0,0.5],[1,0.5]];portConstraint=eastwest;html=1;" parent="ioHlp-8zEgEREZRqOhcT-38" vertex="1">
          <mxGeometry x="50" y="180" width="80" height="26" as="geometry" />
        </mxCell>
        <mxCell id="ioHlp-8zEgEREZRqOhcT-46" style="edgeStyle=orthogonalEdgeStyle;rounded=0;orthogonalLoop=1;jettySize=auto;html=1;exitX=1;exitY=0.5;exitDx=0;exitDy=0;" parent="ioHlp-8zEgEREZRqOhcT-38" edge="1">
          <mxGeometry relative="1" as="geometry">
            <mxPoint x="140" y="129" as="sourcePoint" />
            <mxPoint x="140" y="129" as="targetPoint" />
          </mxGeometry>
        </mxCell>
        <mxCell id="ioHlp-8zEgEREZRqOhcT-48" style="edgeStyle=orthogonalEdgeStyle;rounded=0;orthogonalLoop=1;jettySize=auto;html=1;exitX=1;exitY=0.5;exitDx=0;exitDy=0;entryX=0.975;entryY=0.769;entryDx=0;entryDy=0;entryPerimeter=0;" parent="ioHlp-8zEgEREZRqOhcT-38" edge="1">
          <mxGeometry relative="1" as="geometry">
            <mxPoint x="120" y="253" as="sourcePoint" />
            <mxPoint x="118" y="259.9939999999999" as="targetPoint" />
          </mxGeometry>
        </mxCell>
        <mxCell id="ioHlp-8zEgEREZRqOhcT-49" value="Product" style="swimlane;whiteSpace=wrap;html=1;startSize=40;" parent="1" vertex="1">
          <mxGeometry x="300" y="400" width="210" height="290" as="geometry" />
        </mxCell>
        <mxCell id="ioHlp-8zEgEREZRqOhcT-50" value="" style="endArrow=none;html=1;rounded=0;exitX=0;exitY=0.5;exitDx=0;exitDy=0;" parent="ioHlp-8zEgEREZRqOhcT-49" edge="1">
          <mxGeometry width="50" height="50" relative="1" as="geometry">
            <mxPoint y="170" as="sourcePoint" />
            <mxPoint x="210" y="170" as="targetPoint" />
            <Array as="points" />
          </mxGeometry>
        </mxCell>
        <mxCell id="ioHlp-8zEgEREZRqOhcT-51" value="_id: guid" style="text;align=center;fontStyle=1;verticalAlign=middle;spacingLeft=3;spacingRight=3;strokeColor=none;rotatable=0;points=[[0,0.5],[1,0.5]];portConstraint=eastwest;html=1;" parent="ioHlp-8zEgEREZRqOhcT-49" vertex="1">
          <mxGeometry y="50" width="80" height="26" as="geometry" />
        </mxCell>
        <mxCell id="ioHlp-8zEgEREZRqOhcT-52" value="_price: double" style="text;align=center;fontStyle=1;verticalAlign=middle;spacingLeft=3;spacingRight=3;strokeColor=none;rotatable=0;points=[[0,0.5],[1,0.5]];portConstraint=eastwest;html=1;" parent="ioHlp-8zEgEREZRqOhcT-49" vertex="1">
          <mxGeometry x="10" y="70" width="80" height="26" as="geometry" />
        </mxCell>
        <mxCell id="ioHlp-8zEgEREZRqOhcT-53" value="_quantity: int" style="text;align=center;fontStyle=1;verticalAlign=middle;spacingLeft=3;spacingRight=3;strokeColor=none;rotatable=0;points=[[0,0.5],[1,0.5]];portConstraint=eastwest;html=1;" parent="ioHlp-8zEgEREZRqOhcT-49" vertex="1">
          <mxGeometry x="10" y="90" width="80" height="26" as="geometry" />
        </mxCell>
        <mxCell id="ioHlp-8zEgEREZRqOhcT-54" value="Product(price,h)" style="text;align=center;fontStyle=1;verticalAlign=middle;spacingLeft=3;spacingRight=3;strokeColor=none;rotatable=0;points=[[0,0.5],[1,0.5]];portConstraint=eastwest;html=1;" parent="ioHlp-8zEgEREZRqOhcT-49" vertex="1">
          <mxGeometry x="50" y="180" width="80" height="26" as="geometry" />
        </mxCell>
        <mxCell id="ioHlp-8zEgEREZRqOhcT-56" style="edgeStyle=orthogonalEdgeStyle;rounded=0;orthogonalLoop=1;jettySize=auto;html=1;exitX=1;exitY=0.5;exitDx=0;exitDy=0;" parent="ioHlp-8zEgEREZRqOhcT-49" edge="1">
          <mxGeometry relative="1" as="geometry">
            <mxPoint x="140" y="129" as="sourcePoint" />
            <mxPoint x="140" y="129" as="targetPoint" />
          </mxGeometry>
        </mxCell>
        <mxCell id="ioHlp-8zEgEREZRqOhcT-58" style="edgeStyle=orthogonalEdgeStyle;rounded=0;orthogonalLoop=1;jettySize=auto;html=1;exitX=1;exitY=0.5;exitDx=0;exitDy=0;entryX=0.975;entryY=0.769;entryDx=0;entryDy=0;entryPerimeter=0;" parent="ioHlp-8zEgEREZRqOhcT-49" edge="1">
          <mxGeometry relative="1" as="geometry">
            <mxPoint x="120" y="253" as="sourcePoint" />
            <mxPoint x="118" y="259.9939999999999" as="targetPoint" />
          </mxGeometry>
        </mxCell>
        <mxCell id="ioHlp-8zEgEREZRqOhcT-74" value="Text" style="edgeLabel;html=1;align=center;verticalAlign=middle;resizable=0;points=[];" parent="ioHlp-8zEgEREZRqOhcT-58" vertex="1" connectable="0">
          <mxGeometry x="-0.5553" y="-3" relative="1" as="geometry">
            <mxPoint as="offset" />
          </mxGeometry>
        </mxCell>
        <mxCell id="ioHlp-8zEgEREZRqOhcT-75" value="Text" style="edgeLabel;html=1;align=center;verticalAlign=middle;resizable=0;points=[];" parent="ioHlp-8zEgEREZRqOhcT-58" vertex="1" connectable="0">
          <mxGeometry x="0.3342" relative="1" as="geometry">
            <mxPoint as="offset" />
          </mxGeometry>
        </mxCell>
        <mxCell id="ioHlp-8zEgEREZRqOhcT-59" value="Address" style="swimlane;whiteSpace=wrap;html=1;startSize=40;" parent="1" vertex="1">
          <mxGeometry x="40" y="750" width="210" height="290" as="geometry" />
        </mxCell>
        <mxCell id="ioHlp-8zEgEREZRqOhcT-60" value="" style="endArrow=none;html=1;rounded=0;exitX=0;exitY=0.5;exitDx=0;exitDy=0;" parent="ioHlp-8zEgEREZRqOhcT-59" edge="1">
          <mxGeometry width="50" height="50" relative="1" as="geometry">
            <mxPoint y="170" as="sourcePoint" />
            <mxPoint x="210" y="170" as="targetPoint" />
            <Array as="points" />
          </mxGeometry>
        </mxCell>
        <mxCell id="ioHlp-8zEgEREZRqOhcT-61" value="_street: string" style="text;align=center;fontStyle=1;verticalAlign=middle;spacingLeft=3;spacingRight=3;strokeColor=none;rotatable=0;points=[[0,0.5],[1,0.5]];portConstraint=eastwest;html=1;" parent="ioHlp-8zEgEREZRqOhcT-59" vertex="1">
          <mxGeometry x="20" y="50" width="80" height="26" as="geometry" />
        </mxCell>
        <mxCell id="ioHlp-8zEgEREZRqOhcT-62" value="_city: string" style="text;align=center;fontStyle=1;verticalAlign=middle;spacingLeft=3;spacingRight=3;strokeColor=none;rotatable=0;points=[[0,0.5],[1,0.5]];portConstraint=eastwest;html=1;" parent="ioHlp-8zEgEREZRqOhcT-59" vertex="1">
          <mxGeometry x="10" y="70" width="80" height="26" as="geometry" />
        </mxCell>
        <mxCell id="ioHlp-8zEgEREZRqOhcT-63" value="_stateProvince: string" style="text;align=center;fontStyle=1;verticalAlign=middle;spacingLeft=3;spacingRight=3;strokeColor=none;rotatable=0;points=[[0,0.5],[1,0.5]];portConstraint=eastwest;html=1;" parent="ioHlp-8zEgEREZRqOhcT-59" vertex="1">
          <mxGeometry x="40" y="90" width="80" height="26" as="geometry" />
        </mxCell>
        <mxCell id="ioHlp-8zEgEREZRqOhcT-64" value="Address(street, city,&amp;nbsp;&lt;div&gt;stateProvince, country)&lt;/div&gt;" style="text;align=center;fontStyle=1;verticalAlign=middle;spacingLeft=3;spacingRight=3;strokeColor=none;rotatable=0;points=[[0,0.5],[1,0.5]];portConstraint=eastwest;html=1;" parent="ioHlp-8zEgEREZRqOhcT-59" vertex="1">
          <mxGeometry x="60" y="180" width="80" height="26" as="geometry" />
        </mxCell>
        <mxCell id="ioHlp-8zEgEREZRqOhcT-65" value="withinUS() bool" style="text;align=center;fontStyle=1;verticalAlign=middle;spacingLeft=3;spacingRight=3;strokeColor=none;rotatable=0;points=[[0,0.5],[1,0.5]];portConstraint=eastwest;html=1;" parent="ioHlp-8zEgEREZRqOhcT-59" vertex="1">
          <mxGeometry x="50" y="220" width="80" height="26" as="geometry" />
        </mxCell>
        <mxCell id="ioHlp-8zEgEREZRqOhcT-66" style="edgeStyle=orthogonalEdgeStyle;rounded=0;orthogonalLoop=1;jettySize=auto;html=1;exitX=1;exitY=0.5;exitDx=0;exitDy=0;" parent="ioHlp-8zEgEREZRqOhcT-59" edge="1">
          <mxGeometry relative="1" as="geometry">
            <mxPoint x="140" y="129" as="sourcePoint" />
            <mxPoint x="140" y="129" as="targetPoint" />
          </mxGeometry>
        </mxCell>
        <mxCell id="ioHlp-8zEgEREZRqOhcT-67" value="DisplayAddress()" style="text;align=center;fontStyle=1;verticalAlign=middle;spacingLeft=3;spacingRight=3;strokeColor=none;rotatable=0;points=[[0,0.5],[1,0.5]];portConstraint=eastwest;html=1;" parent="ioHlp-8zEgEREZRqOhcT-59" vertex="1">
          <mxGeometry x="40" y="240" width="80" height="26" as="geometry" />
        </mxCell>
        <mxCell id="ioHlp-8zEgEREZRqOhcT-68" style="edgeStyle=orthogonalEdgeStyle;rounded=0;orthogonalLoop=1;jettySize=auto;html=1;exitX=1;exitY=0.5;exitDx=0;exitDy=0;entryX=0.975;entryY=0.769;entryDx=0;entryDy=0;entryPerimeter=0;" parent="ioHlp-8zEgEREZRqOhcT-59" source="ioHlp-8zEgEREZRqOhcT-67" target="ioHlp-8zEgEREZRqOhcT-67" edge="1">
          <mxGeometry relative="1" as="geometry" />
        </mxCell>
        <mxCell id="ioHlp-8zEgEREZRqOhcT-69" value="_country: String" style="text;align=center;fontStyle=1;verticalAlign=middle;spacingLeft=3;spacingRight=3;strokeColor=none;rotatable=0;points=[[0,0.5],[1,0.5]];portConstraint=eastwest;html=1;" parent="ioHlp-8zEgEREZRqOhcT-59" vertex="1">
          <mxGeometry x="20" y="116" width="80" height="26" as="geometry" />
        </mxCell>
      </root>
    </mxGraphModel>
  </diagram>
</mxfile>
